<?xml version="1.0" encoding="UTF-8" standalone="no"?>
<!-- Created with Inkscape (http://www.inkscape.org/) -->

<svg
   xmlns:dc="http://purl.org/dc/elements/1.1/"
   xmlns:cc="http://creativecommons.org/ns#"
   xmlns:rdf="http://www.w3.org/1999/02/22-rdf-syntax-ns#"
   xmlns:svg="http://www.w3.org/2000/svg"
   xmlns="http://www.w3.org/2000/svg"
   xmlns:sodipodi="http://sodipodi.sourceforge.net/DTD/sodipodi-0.dtd"
   xmlns:inkscape="http://www.inkscape.org/namespaces/inkscape"
   width="177.52664mm"
   height="35.306152mm"
   viewBox="0 0 177.52664 35.306152"
   version="1.1"
   id="svg3820"
   inkscape:version="0.92.3 (2405546, 2018-03-11)"
   sodipodi:docname="NomeSweetCamera.svg">
  <defs
     id="defs3814" />
  <sodipodi:namedview
     id="base"
     pagecolor="#ffffff"
     bordercolor="#666666"
     borderopacity="1.0"
     inkscape:pageopacity="0.0"
     inkscape:pageshadow="2"
     inkscape:zoom="0.35"
     inkscape:cx="-381.65945"
     inkscape:cy="-147.56543"
     inkscape:document-units="mm"
     inkscape:current-layer="layer1"
     showgrid="false"
     fit-margin-top="0"
     fit-margin-left="0"
     fit-margin-right="0"
     fit-margin-bottom="0"
     inkscape:window-width="1366"
     inkscape:window-height="705"
     inkscape:window-x="-8"
     inkscape:window-y="-8"
     inkscape:window-maximized="1"
     inkscape:pagecheckerboard="true" />
  <metadata
     id="metadata3817">
    <rdf:RDF>
      <cc:Work
         rdf:about="">
        <dc:format>image/svg+xml</dc:format>
        <dc:type
           rdf:resource="http://purl.org/dc/dcmitype/StillImage" />
        <dc:title></dc:title>
      </cc:Work>
    </rdf:RDF>
  </metadata>
  <g
     inkscape:label="Camada 1"
     inkscape:groupmode="layer"
     id="layer1"
     transform="translate(-12.5343,-94.138589)">
    <rect
       style="display:inline;opacity:0.74500002;fill:#9a0083;fill-opacity:1;stroke:none;stroke-width:0.09715122;stroke-linecap:square;stroke-linejoin:miter;stroke-miterlimit:4;stroke-dasharray:none;stroke-opacity:1;paint-order:markers stroke fill"
       id="rect843"
       width="177.52664"
       height="4.7867446"
       x="12.5343"
       y="124.658"
       rx="8.8573751"
       ry="1.4785124" />
    <path
       inkscape:connector-curvature="0"
       id="path3760"
       style="font-style:normal;font-variant:normal;font-weight:normal;font-stretch:normal;font-size:medium;line-height:1.25;font-family:'Candy Cane (Unregistered)';-inkscape-font-specification:'Candy Cane (Unregistered)';letter-spacing:0px;word-spacing:0px;display:inline;fill:#9a0083;fill-opacity:1;stroke:none;stroke-width:0.75819945"
       d="m 30.295479,112.41156 q 0,3.57389 -1.689118,5.99491 -1.609228,2.28653 -3.777691,2.28653 -2.168463,0 -3.754864,-2.34417 -1.666293,-2.44024 -1.666293,-6.03335 0,-0.94151 0.42228,-1.63323 0.422279,-0.69172 0.981515,-0.69172 0.890211,0 1.244012,1.55637 0.65054,2.86296 0.65054,2.88218 0.616299,1.53715 2.145636,1.53715 0.992928,0 1.780422,-0.94151 0.867385,-1.05679 0.867385,-2.67081 0,-1.67166 -0.867385,-2.6516 -0.719017,-0.807 -1.791834,-0.96072 -1.96303,-0.24979 -3.207043,-1.95988 -1.403794,-1.92144 -1.403794,-5.11105 0,-2.997461 1.460859,-5.014981 1.380968,-1.90223 3.207042,-1.90223 1.780422,0 3.149977,1.94066 1.426621,2.05595 1.426621,5.014981 0,0.97994 -0.410867,1.69087 -0.399453,0.71094 -0.992927,0.71094 -0.867386,0 -1.175535,-1.21051 -0.239673,-1.11444 -0.490758,-2.22888 -0.422279,-1.191301 -1.574989,-1.191301 -0.661952,0 -1.186948,0.595651 -0.604887,0.67251 -0.604887,1.7293 0,1.88302 1.780422,2.22888 2.408135,0.44194 3.823343,2.32495 1.654879,2.19046 1.654879,6.05257 z m -1.289665,-10.58718 q -0.536409,-2.094381 -1.894551,-2.094381 -0.251085,0 -0.490757,0.0961 0.171194,0.288221 0.536409,2.132811 0.273911,1.36422 0.913037,1.36422 0.365214,0 0.639125,-0.44193 0.285325,-0.44193 0.296737,-1.0568 z m -1.837487,-5.226341 q -1.061405,-1.0568 -2.282592,-1.0568 -0.593474,0 -1.084232,1.21051 -0.456518,1.11444 -0.456518,2.15203 0,0.21136 0.02283,0.51879 0.570648,-0.67251 1.34673,-0.73015 0.787495,-2.26731 2.453787,-2.09438 z M 23.0939,103.68818 q -0.467932,-0.78779 -0.513583,-1.74852 -0.798908,-1.26815 -0.798908,-3.112741 0,-0.7878 0.159782,-1.51795 -1.221187,1.76774 -1.244013,4.361691 0.536409,2.11359 1.905964,2.11359 0.239673,0 0.490758,-0.0961 z m 4.42823,2.30574 q -1.164123,-1.11444 -2.522265,-1.17208 -0.787495,2.32495 -2.385309,2.15202 1.061405,1.01837 2.602155,1.01837 0.639126,0 1.312491,-0.5188 0.753255,-0.59564 0.992928,-1.47951 z m 2.305417,6.84035 q -0.19402,0.0384 -0.376627,0.0384 -0.844559,0 -1.495098,-0.73015 l 0.01141,0.21136 q 0.01141,0.84544 -0.262498,1.74852 0.262498,2.2481 1.027167,3.01668 0.992927,-1.86381 1.095644,-4.28483 z m -8.068964,-0.15371 q -0.05706,-1.90224 -0.947275,-1.90224 -0.673365,0 -0.890212,1.09523 l 0.410867,-0.0384 q 0.696191,-0.0769 1.42662,0.84544 z m 3.412476,4.05425 -0.445105,0.0192 q -0.342389,0.0192 -0.867386,-0.23057 -1.015753,0.69172 -1.027166,0.71094 -0.456518,0.44193 -0.707604,1.44108 1.129884,1.11444 2.453787,1.21051 l -0.01141,-0.61486 q -0.02283,-1.28737 0.604886,-2.53631 z" />
    <path
       inkscape:connector-curvature="0"
       id="path3762"
       style="font-style:normal;font-variant:normal;font-weight:normal;font-stretch:normal;font-size:medium;line-height:1.25;font-family:'Candy Cane (Unregistered)';-inkscape-font-specification:'Candy Cane (Unregistered)';letter-spacing:0px;word-spacing:0px;display:inline;fill:#9a0083;fill-opacity:1;stroke:none;stroke-width:0.75819945"
       d="m 50.918701,103.36153 q 0,0.57644 -0.182607,1.17209 l -4.62225,14.96808 q -0.467931,1.49873 -1.244013,1.49873 -0.776081,0 -1.244012,-1.49873 l -2.054334,-6.60978 -2.077159,6.60978 q -0.479345,1.49873 -1.255425,1.49873 -0.764669,0 -1.2326,-1.49873 -1.323904,-4.15033 -2.659221,-8.30066 -2.157049,-6.87878 -2.157049,-7.82029 0,-0.96072 0.445106,-1.63323 0.456518,-0.69172 1.027166,-0.69172 0.798907,0 1.198361,1.30658 l 3.389649,10.93304 1.905964,-6.01413 q 0.319564,-1.01837 0.559236,-1.38344 0.34239,-0.51879 0.924452,-0.51879 0.753253,0 1.346726,1.90223 l 1.88314,6.01413 3.378238,-10.93304 q 0.399454,-1.30658 1.198361,-1.30658 0.570648,0 1.015754,0.6725 0.456517,0.67251 0.456517,1.63323 z m -1.232598,2.86296 q -0.559237,0.49958 -1.198362,0.49958 -0.490757,0 -0.958691,-0.32665 l -1.084231,3.49704 q 0.353804,0.23057 0.719019,0.23057 1.415206,0 1.940203,-2.20966 0.0913,-0.0769 0.582062,-1.69088 z m -6.551041,3.24725 q -0.867386,-2.97824 -1.574991,-2.97824 -0.707601,0 -1.620639,3.09353 0.992926,0.73015 1.358141,2.69002 0.194021,-0.24978 0.365215,-0.24978 0.319564,0 0.684779,0.96072 l -0.0114,-0.48036 q -0.04565,-2.42103 0.798907,-3.03589 z m 4.00595,4.97655 q -0.73043,0.67251 -1.278252,0.67251 -0.958689,0 -1.666293,-2.28653 -0.787495,1.01837 -0.787495,2.72846 0,1.21051 0.38804,2.7861 0.467932,1.88302 1.072819,1.88302 0.490758,0 0.821733,-1.09523 z m -11.150465,-6.74428 -1.152709,-3.7084 q -0.878798,1.03759 -0.878798,2.6516 0,1.3258 0.947276,4.3809 0.05706,-2.11359 1.084231,-3.3241 z m 4.542359,6.74428 q -0.73043,0.67251 -1.289664,0.67251 -0.95869,0 -1.666293,-2.28653 -0.787494,1.01837 -0.787494,2.72846 0,1.21051 0.399453,2.7861 0.456518,1.88302 1.061405,1.88302 0.490758,0 0.821733,-1.09523 z" />
    <path
       inkscape:connector-curvature="0"
       id="path3764"
       style="font-style:normal;font-variant:normal;font-weight:normal;font-stretch:normal;font-size:medium;line-height:1.25;font-family:'Candy Cane (Unregistered)';-inkscape-font-specification:'Candy Cane (Unregistered)';letter-spacing:0px;word-spacing:0px;display:inline;fill:#9a0083;fill-opacity:1;stroke:none;stroke-width:0.75819945"
       d="m 63.484372,115.6588 q 0,2.05595 -1.894551,3.66997 -1.620642,1.36423 -3.001608,1.36423 -2.339658,0 -4.085842,-2.7861 -1.746183,-2.7861 -1.746183,-6.70586 0,-3.86211 1.791835,-6.55213 1.734772,-2.59396 4.051601,-2.59396 1.358144,0 2.773352,1.1913 1.70053,1.44109 1.70053,3.49703 0,1.53716 -1.141296,2.97825 -0.992928,1.3258 -1.985854,2.6516 -1.529337,1.92144 -2.111399,1.92144 -0.547822,0 -0.992928,-0.6725 -0.433692,-0.69172 -0.433692,-1.61402 0,-0.96072 0.536408,-1.63323 l 2.796175,-3.57389 q -0.536408,-0.34586 -1.129882,-0.34586 -1.209773,0 -2.111398,1.36423 -0.935863,1.40265 -0.935863,3.42017 0,2.03674 0.935863,3.43939 0.901625,1.36423 2.111398,1.36423 0.776081,0 1.88314,-1.21051 1.118468,-1.21051 1.780421,-1.21051 0.502169,0 0.855972,0.59565 0.353801,0.57643 0.353801,1.44108 z m -1.70053,-11.24047 q -1.415208,-1.61402 -3.149978,-1.61402 -0.684779,0 -1.244013,1.11444 -0.547822,1.11445 -0.524997,2.26731 l 0.0114,0.26901 q 0.810321,-0.73015 1.73477,-0.73015 0.45652,0 0.901626,0.19214 0.810321,-1.63323 2.271178,-1.49873 z m -1.757598,5.28398 q 0,-1.03758 -0.262498,-1.9983 l -2.522265,3.22803 q -0.353801,0.46115 -0.353801,1.09523 0,0.61486 0.285324,1.09522 0.296738,0.46115 0.661953,0.46115 0.319561,0 0.593474,-0.38429 0.536408,-0.74937 1.072819,-1.49873 0.524994,-0.88387 0.524994,-1.99831 z m -4.473879,4.26562 q -0.45652,-1.24894 -0.45652,-2.72846 0,-0.78779 0.136956,-1.55637 -0.821732,-1.22973 -0.821732,-3.0551 0,-0.38429 0.05706,-0.76858 -1.244013,2.34416 -1.244013,5.36084 0,1.11444 0.764667,1.9983 0.707605,0.80701 1.403795,0.76858 z m 4.759203,2.36338 v -0.24979 q -0.787492,0.69172 -1.70053,0.69172 -0.433694,0 -0.84456,-0.17293 -0.776081,1.22973 -1.883138,1.22973 -0.410866,0 -0.798909,-0.19215 1.517925,2.05595 3.503782,2.05595 0.673364,0 1.209773,-1.11444 0.536408,-1.11444 0.513582,-2.24809 z" />
    <path
       inkscape:connector-curvature="0"
       id="path3766"
       style="font-style:normal;font-variant:normal;font-weight:normal;font-stretch:normal;font-size:medium;line-height:1.25;font-family:'Candy Cane (Unregistered)';-inkscape-font-specification:'Candy Cane (Unregistered)';letter-spacing:0px;word-spacing:0px;display:inline;fill:#9a0083;fill-opacity:1;stroke:none;stroke-width:0.75819945"
       d="m 75.947324,115.6588 q 0,2.05595 -1.894549,3.66997 -1.620642,1.36423 -3.00161,1.36423 -2.339658,0 -4.085842,-2.7861 -1.746181,-2.7861 -1.746181,-6.70586 0,-3.86211 1.791835,-6.55213 1.73477,-2.59396 4.051602,-2.59396 1.35814,0 2.773352,1.1913 1.700524,1.44109 1.700524,3.49703 0,1.53716 -1.141288,2.97825 -0.992931,1.3258 -1.985859,2.6516 -1.529337,1.92144 -2.111399,1.92144 -0.54782,0 -0.992926,-0.6725 -0.433694,-0.69172 -0.433694,-1.61402 0,-0.96072 0.536408,-1.63323 l 2.796178,-3.57389 q -0.536409,-0.34586 -1.129885,-0.34586 -1.209773,0 -2.111396,1.36423 -0.935863,1.40265 -0.935863,3.42017 0,2.03674 0.935863,3.43939 0.901623,1.36423 2.111396,1.36423 0.776081,0 1.88314,-1.21051 1.118473,-1.21051 1.780419,-1.21051 0.502173,0 0.855977,0.59565 0.353798,0.57643 0.353798,1.44108 z m -1.700532,-11.24047 q -1.415204,-1.61402 -3.149974,-1.61402 -0.684778,0 -1.244015,1.11444 -0.54782,1.11445 -0.524994,2.26731 l 0.0114,0.26901 q 0.81032,-0.73015 1.734769,-0.73015 0.45652,0 0.901624,0.19214 0.81032,-1.63323 2.271175,-1.49873 z m -1.757593,5.28398 q 0,-1.03758 -0.262499,-1.9983 l -2.522265,3.22803 q -0.3538,0.46115 -0.3538,1.09523 0,0.61486 0.285324,1.09522 0.296735,0.46115 0.66195,0.46115 0.319564,0 0.593476,-0.38429 0.536406,-0.74937 1.072817,-1.49873 0.524997,-0.88387 0.524997,-1.99831 z m -4.473882,4.26562 q -0.456517,-1.24894 -0.456517,-2.72846 0,-0.78779 0.136953,-1.55637 -0.821732,-1.22973 -0.821732,-3.0551 0,-0.38429 0.05706,-0.76858 -1.244013,2.34416 -1.244013,5.36084 0,1.11444 0.764667,1.9983 0.707605,0.80701 1.403795,0.76858 z m 4.759206,2.36338 v -0.24979 q -0.787495,0.69172 -1.700533,0.69172 -0.433692,0 -0.844558,-0.17293 -0.776081,1.22973 -1.88314,1.22973 -0.410866,0 -0.798907,-0.19215 1.517926,2.05595 3.50378,2.05595 0.673364,0 1.209775,-1.11444 0.536408,-1.11444 0.513583,-2.24809 z" />
    <path
       inkscape:connector-curvature="0"
       id="path3768"
       style="font-style:normal;font-variant:normal;font-weight:normal;font-stretch:normal;font-size:medium;line-height:1.25;font-family:'Candy Cane (Unregistered)';-inkscape-font-specification:'Candy Cane (Unregistered)';letter-spacing:0px;word-spacing:0px;display:inline;fill:#9a0083;fill-opacity:1;stroke:none;stroke-width:0.75819945"
       d="m 87.291813,113.02642 q 0,3.36253 -1.426625,5.76434 -1.415203,2.40181 -3.423886,2.40181 -1.997265,0 -3.42389,-2.40181 -1.426618,-2.40181 -1.426618,-5.76434 l -0.02281,-16.543671 q 0,-1.01837 0.399455,-1.67166 0.399446,-0.6725 1.004337,-0.6725 0.604882,0 1.004342,0.6725 0.399455,0.67251 0.399455,1.67166 l 0.0114,5.629841 h 1.266843 q 0.570651,0 0.981517,0.71094 0.410861,0.69172 0.410861,1.65245 0,1.71008 -0.924446,2.17123 -0.422281,0.21136 -1.723361,0.19215 0,0.269 -0.05703,2.45945 -0.03422,1.80616 0,2.88217 0.04563,1.55637 0.251085,2.28652 0.159782,0.13451 0.136953,0.42272 0.604891,1.57559 1.689119,1.57559 0.844563,0 1.449446,-1.01837 0.616304,-1.01836 0.616304,-2.42102 0,-1.01837 0.399455,-1.69088 0.399452,-0.6725 1.004337,-0.6725 0.570648,0 0.981514,0.71093 0.422283,0.69173 0.422283,1.65245 z m -0.684781,-1.07601 q -0.273904,-0.49958 -0.719016,-0.49958 -0.639125,0 -0.810321,0.7878 -0.09131,0.82622 -0.171196,1.65244 1.175542,-0.15372 1.700533,-1.94066 z m -6.722229,-8.60809 v -3.650751 q -0.661956,0.11528 -1.244018,0.999151 -0.627711,0.94151 -0.627711,2.01752 v 2.42103 q 0.696188,-1.61402 1.871729,-1.78695 z m 0,9.28059 v -3.84289 q -0.661956,0.11528 -1.244018,0.99915 -0.627711,0.94151 -0.627711,2.01752 v 2.67081 q 0.684774,-1.63323 1.871729,-1.84459 z m 4.599424,6.93643 q -1.506516,-0.0769 -2.19129,-2.32495 -1.11847,-0.0961 -1.82608,-1.5948 -0.20543,0.71093 -0.20543,1.51794 0,0.99915 0.262501,1.65245 0.30815,0.63407 0.627711,1.26815 0.62771,0.32665 1.289663,0.32665 1.084229,0 2.042925,-0.84544 z" />
    <path
       inkscape:connector-curvature="0"
       id="path3770"
       style="font-style:normal;font-variant:normal;font-weight:normal;font-stretch:normal;font-size:medium;line-height:1.25;font-family:'Candy Cane (Unregistered)';-inkscape-font-specification:'Candy Cane (Unregistered)';letter-spacing:0px;word-spacing:0px;display:inline;fill:#9a0083;fill-opacity:1;stroke:none;stroke-width:0.75819945"
       d="m 102.88192,94.407589 h -0.0114 z m 5.46681,20.117561 q 0,-0.90308 -0.44511,-1.63323 -0.43369,-0.73015 -0.9701,-0.73015 -0.47934,0 -1.10705,1.01836 -1.05,1.69088 -1.20978,1.88302 -0.82173,1.01837 -1.76901,1.01837 -1.76901,0 -2.910296,-2.86296 -1.01576,-2.51709 -1.01576,-5.66827 0,-3.13196 1.00434,-5.66827 1.141296,-2.862961 2.910306,-2.862961 0.99293,0 1.80325,0.97994 0.19402,0.249791 1.1527,1.863811 0.59348,0.97993 1.07282,0.97993 0.57065,0 1.01575,-0.6725 0.45653,-0.67251 0.45653,-1.61402 0,-2.171241 -2.15706,-4.265611 -1.94019,-1.88302 -3.34399,-1.88302 -2.887476,0 -4.873326,4.20797 -1.8375,3.919751 -1.8375,8.915521 0,5.09183 1.79184,8.97316 1.95162,4.18876 4.896156,4.18876 1.56358,0 3.00161,-1.3258 1.43803,-1.3258 2.27118,-3.51625 0.2625,-0.71094 0.2625,-1.3258 z m -0.49076,-13.96893 q 0,0.59565 -0.29674,1.07601 -0.28532,0.46115 -0.65054,0.46115 -0.36521,0 -0.98151,-1.01837 -0.44511,-0.76858 -0.87879,-1.517941 0.54782,-0.7878 1.27825,-0.7878 0.54782,0 0.99292,0.42272 0.53641,0.51879 0.53641,1.364231 z m -3.27552,-4.918911 q -1.42662,0.38429 -1.90596,2.61317 -0.6163,0.0577 -1.22119,0.48037 -0.0228,-0.44194 -0.0228,-0.6533 0,-0.90308 0.45652,-1.90223 0.46792,-0.99915 0.99292,-0.99915 0.85598,0 1.70053,0.46114 z m 3.29834,18.887841 q 0,0.88386 -1.03857,2.57474 0.0799,-0.48036 0.0799,-0.97994 0,-1.57559 -0.63913,-2.70924 0.26249,-0.42272 0.61631,-0.42272 0.37661,0 0.67335,0.46115 0.30814,0.44193 0.30814,1.07601 z m -8.685256,-12.12434 q -0.57065,1.78695 -0.7076,3.93897 -1.17553,-0.74936 -1.17553,-2.7861 0,-1.4603 -0.057,-1.53716 0.51358,-2.055951 1.35814,-3.612321 -0.11413,0.59565 -0.11413,1.22973 0,1.614011 0.69619,2.766881 z m 5.067356,14.64144 q 0,0.90308 -0.44511,1.8638 -0.47934,1.01837 -0.99293,1.01837 -1.07282,0 -2.07715,-0.71094 0.63912,-0.0384 1.26683,-0.67251 0.6962,-0.71093 0.84457,-1.69087 0.70759,0 1.38097,-0.48036 0.0228,0.42272 0.0228,0.67251 z m -4.16573,-2.26731 q -0.467926,0.36507 -0.890206,0.36507 -0.58207,0 -1.18695,-0.88386 -0.60489,-0.90308 -0.65054,-0.90308 l -0.0456,0.0192 q -0.46793,-1.74852 -0.63913,-3.68918 0.75326,1.4603 1.68912,1.38344 l 0.39945,-0.0192 q 0.42228,2.20966 1.323906,3.72761 z" />
    <path
       inkscape:connector-curvature="0"
       id="path3772"
       style="font-style:normal;font-variant:normal;font-weight:normal;font-stretch:normal;font-size:medium;line-height:1.25;font-family:'Candy Cane (Unregistered)';-inkscape-font-specification:'Candy Cane (Unregistered)';letter-spacing:0px;word-spacing:0px;display:inline;fill:#9a0083;fill-opacity:1;stroke:none;stroke-width:0.75819945"
       d="m 123.31111,118.19511 q 0,0.97994 -0.37662,1.61402 -0.37663,0.61486 -0.94728,0.61486 -1.35814,0 -1.35814,-3.28567 0,-0.38429 0.0114,-1.07601 0.0228,-0.69172 0.0228,-0.96073 -0.7076,2.45946 -2.1114,4.03504 -1.40379,1.55638 -3.00161,1.55638 -2.27118,0 -3.90322,-2.9206 -1.60922,-2.86296 -1.60922,-6.68664 0,-3.80447 1.63205,-6.53293 1.63204,-2.72845 3.88039,-2.72845 1.60923,0 3.00161,1.4603 1.4038,1.4603 2.1114,3.88132 0,-0.269 -0.0228,-0.99915 -0.0114,-0.74936 -0.0114,-1.15287 0,-3.34332 1.35814,-3.34332 0.57065,0 0.94728,0.63408 0.37662,0.63408 0.37662,1.5948 z m -0.44511,-12.8737 v -1.71009 q 0,-0.44193 -0.28532,-0.80701 -0.27391,-0.38428 -0.5364,-0.34586 h -0.10272 q -0.83315,0.99916 -0.83315,2.28653 v 2.28652 q 0.65054,-1.53716 1.75759,-1.71009 z m 0,8.78102 v -3.65075 q -0.61629,0.11528 -1.16411,0.96072 -0.59348,0.88387 -0.59348,1.90224 v 2.53631 q 0.65054,-1.55638 1.75759,-1.74852 z m -4.30268,-9.89546 q -1.33532,-1.63323 -2.97878,-1.63323 -0.66195,0 -1.17554,1.15287 -0.51358,1.13366 -0.49075,2.26731 l 0.0114,0.269 q 0.75325,-0.73015 1.64346,-0.73015 0.42229,0 0.84456,0.19215 0.76467,-1.65245 2.14563,-1.51795 z m 2.08857,6.95564 q 0,-1.07601 -0.7076,-1.95987 -0.66195,-0.82622 -1.32391,-0.7878 l -0.13695,0.0192 q 0.39945,1.24895 0.39945,2.70925 0,0.57643 -0.0684,1.15287 0.86738,1.26815 0.86738,3.24724 0,0.34586 -0.0342,0.69172 1.00435,-2.26731 1.00435,-5.07262 z m -2.2027,-0.0384 q 0,-1.97909 -0.85597,-3.40096 -0.84456,-1.44108 -2.0201,-1.44108 -1.18694,0 -2.04292,1.44108 -0.84455,1.42187 -0.84455,3.40096 0,1.99831 0.84455,3.42018 0.85598,1.42187 2.04292,1.42187 1.17554,0 2.0201,-1.42187 0.85597,-1.42187 0.85597,-3.42018 z m -5.77496,2.76689 q -0.42227,-1.28737 -0.42227,-2.76689 0,-0.807 0.12555,-1.57558 -0.77609,-1.24894 -0.77609,-3.09353 0,-0.40351 0.0456,-0.7878 -1.16413,2.36338 -1.16413,5.41849 0,1.13365 0.7076,2.01752 0.66196,0.84543 1.33532,0.78779 z m 4.49671,2.38259 v -0.24978 q -0.74185,0.69172 -1.59782,0.69172 -0.41086,0 -0.7989,-0.15372 -0.74185,1.22973 -1.78042,1.22973 -0.38804,0 -0.75325,-0.19215 1.42661,2.09438 3.29833,2.09438 0.65054,0 1.17554,-1.19129 0.47935,-1.13366 0.45652,-2.22889 z" />
    <path
       inkscape:connector-curvature="0"
       id="path3774"
       style="font-style:normal;font-variant:normal;font-weight:normal;font-stretch:normal;font-size:medium;line-height:1.25;font-family:'Candy Cane (Unregistered)';-inkscape-font-specification:'Candy Cane (Unregistered)';letter-spacing:0px;word-spacing:0px;display:inline;fill:#9a0083;fill-opacity:1;stroke:none;stroke-width:0.75819945"
       d="m 142.0626,118.73312 q 0,0.94151 -0.42228,1.65244 -0.41086,0.69173 -0.9701,0.69173 -0.60489,0 -1.00434,-0.6533 -0.39945,-0.6725 -0.39945,-1.69087 v -8.74259 q 0,-1.40266 -0.6163,-2.42102 -0.60489,-1.01837 -1.46086,-1.01837 -0.55923,0 -1.10706,0.538 -0.53641,0.5188 -0.76467,1.38345 0.0913,0.74936 0.0913,1.51794 v 8.74259 q 0,0.94151 -0.42228,1.65244 -0.42229,0.69173 -0.98152,0.69173 -0.60488,0 -1.00434,-0.6533 -0.39945,-0.6725 -0.39945,-1.69087 v -8.74259 q 0,-1.40266 -0.61631,-2.42102 -0.60488,-1.01837 -1.44944,-1.01837 -1.09564,0 -1.70053,1.57559 0.0342,0.28821 -0.13696,0.4035 -0.18261,0.67251 -0.18261,1.4603 -0.1826,1.36423 -0.1826,3.28568 0,0.92229 0.0456,2.76688 0.057,1.82538 0.057,2.69003 0,1.01837 -0.39945,1.69087 -0.38804,0.6533 -0.99293,0.6533 -0.60489,0 -1.00434,-0.6533 -0.39945,-0.6725 -0.39945,-1.69087 v -15.16023 q 0,-1.01836 0.39945,-1.69087 0.39945,-0.67251 1.00434,-0.67251 1.08423,0 1.34673,1.69088 1.07282,-1.07601 2.16846,-1.07601 1.90596,0 3.29835,2.17123 1.5864,-2.17123 3.35541,-2.17123 2.00868,0 3.42389,2.40181 1.42662,2.38259 1.42662,5.76434 z m -2.80759,-15.27551 q -0.95868,-0.84544 -2.04292,-0.84544 -1.10705,0 -1.63205,0.71094 -0.525,0.71093 -0.75326,2.45945 0.057,0.36508 0.42229,1.5948 0.69618,-1.49873 1.81465,-1.61401 0.6962,-2.22888 2.19129,-2.30574 z m 2.27118,11.49026 v -4.01583 q -0.43369,-1.8638 -1.55216,-1.8638 -0.11413,0 -0.29673,0.0576 l 0.057,3.97739 q 1.2326,0.23058 1.79183,1.84459 z m -0.0685,4.57304 q -0.70761,-1.44108 -1.70053,-1.57558 0.0114,2.07516 0.91303,2.07516 0.37663,0 0.7875,-0.49958 z m -8.86783,-16.0633 q -0.94728,-0.84544 -2.03151,-0.84544 -0.66196,0 -1.30108,0.32665 -0.25109,0.46114 -0.50217,0.90308 -0.31957,0.61486 -0.31957,1.11444 v 1.76773 q 0,0.15372 0.14838,0.65329 0.69619,-1.49873 1.82607,-1.61401 0.68477,-2.22888 2.17988,-2.30574 z m 2.28258,11.49026 v -4.01583 q -0.4451,-1.8638 -1.55215,-1.8638 -0.12555,0 -0.30815,0.0576 l 0.057,3.97739 q 1.2326,0.23058 1.80324,1.84459 z m -6.90484,-9.85703 v -1.82538 q 0,-0.48036 -0.29673,-0.86465 -0.29674,-0.38429 -0.57065,-0.36507 l -0.11413,0.0192 q -0.8788,1.03758 -0.8788,2.40181 v 2.42102 q 0.68478,-1.61402 1.86031,-1.78695 z m 6.83637,14.43007 q -0.70761,-1.44108 -1.71194,-1.57558 0.0114,2.07516 0.92444,2.07516 0.36522,0 0.7875,-0.49958 z m -6.83637,-5.14948 v -3.84289 q -0.65054,0.11528 -1.24401,0.99915 -0.6163,0.94151 -0.6163,2.01752 v 2.67081 q 0.68478,-1.63323 1.86031,-1.84459 z" />
    <path
       inkscape:connector-curvature="0"
       id="path3776"
       style="font-style:normal;font-variant:normal;font-weight:normal;font-stretch:normal;font-size:medium;line-height:1.25;font-family:'Candy Cane (Unregistered)';-inkscape-font-specification:'Candy Cane (Unregistered)';letter-spacing:0px;word-spacing:0px;display:inline;fill:#9a0083;fill-opacity:1;stroke:none;stroke-width:0.75819945"
       d="m 155.10762,115.6588 q 0,2.05595 -1.89454,3.66997 -1.62065,1.36423 -3.00161,1.36423 -2.33966,0 -4.08584,-2.7861 -1.74618,-2.7861 -1.74618,-6.70586 0,-3.86211 1.79183,-6.55213 1.73477,-2.59396 4.0516,-2.59396 1.35814,0 2.77335,1.1913 1.70053,1.44109 1.70053,3.49703 0,1.53716 -1.14129,2.97825 -0.99293,1.3258 -1.98586,2.6516 -1.52934,1.92144 -2.1114,1.92144 -0.54782,0 -0.99293,-0.6725 -0.43369,-0.69172 -0.43369,-1.61402 0,-0.96072 0.53641,-1.63323 l 2.79618,-3.57389 q -0.53641,-0.34586 -1.12989,-0.34586 -1.20977,0 -2.1114,1.36423 -0.93586,1.40265 -0.93586,3.42017 0,2.03674 0.93586,3.43939 0.90163,1.36423 2.1114,1.36423 0.77608,0 1.88314,-1.21051 1.11847,-1.21051 1.78042,-1.21051 0.50217,0 0.85598,0.59565 0.35379,0.57643 0.35379,1.44108 z m -1.70052,-11.24047 q -1.41521,-1.61402 -3.14998,-1.61402 -0.68478,0 -1.24401,1.11444 -0.54783,1.11445 -0.525,2.26731 l 0.0114,0.26901 q 0.81031,-0.73015 1.73477,-0.73015 0.45651,0 0.90162,0.19214 0.81031,-1.63323 2.27117,-1.49873 z m -1.7576,5.28398 q 0,-1.03758 -0.2625,-1.9983 l -2.52226,3.22803 q -0.35381,0.46115 -0.35381,1.09523 0,0.61486 0.28533,1.09522 0.29674,0.46115 0.66195,0.46115 0.31957,0 0.59347,-0.38429 0.53642,-0.74937 1.07282,-1.49873 0.525,-0.88387 0.525,-1.99831 z m -4.47388,4.26562 q -0.45652,-1.24894 -0.45652,-2.72846 0,-0.78779 0.13696,-1.55637 -0.82174,-1.22973 -0.82174,-3.0551 0,-0.38429 0.057,-0.76858 -1.244,2.34416 -1.244,5.36084 0,1.11444 0.76466,1.9983 0.70761,0.80701 1.4038,0.76858 z m 4.75921,2.36338 v -0.24979 q -0.7875,0.69172 -1.70054,0.69172 -0.43369,0 -0.84456,-0.17293 -0.77608,1.22973 -1.88313,1.22973 -0.41087,0 -0.79891,-0.19215 1.51792,2.05595 3.50378,2.05595 0.67336,0 1.20977,-1.11444 0.53641,-1.11444 0.51359,-2.24809 z" />
    <path
       inkscape:connector-curvature="0"
       id="path3778"
       style="font-style:normal;font-variant:normal;font-weight:normal;font-stretch:normal;font-size:medium;line-height:1.25;font-family:'Candy Cane (Unregistered)';-inkscape-font-specification:'Candy Cane (Unregistered)';letter-spacing:0px;word-spacing:0px;display:inline;fill:#9a0083;fill-opacity:1;stroke:none;stroke-width:0.75819945"
       d="m 166.57765,109.99053 q 0,0.96073 -0.42227,1.67166 -0.42228,0.69172 -0.98152,0.69172 -0.60489,0 -1.00434,-0.6725 -0.39945,-0.67251 -0.39945,-1.69088 0,-1.40266 -0.6163,-2.42102 -0.60489,-1.01837 -1.44945,-1.01837 -1.09565,0 -1.70053,1.57559 0.0342,0.28821 -0.13695,0.4035 -0.18261,0.67251 -0.18261,1.4603 -0.18261,1.36423 -0.18261,3.28568 0,0.92229 0.0456,2.76688 0.057,1.82538 0.057,2.69003 0,1.01837 -0.39946,1.69087 -0.38804,0.6533 -0.99293,0.6533 -0.60488,0 -1.00433,-0.6533 -0.39946,-0.6725 -0.39946,-1.69087 v -15.16023 q 0,-1.01836 0.39946,-1.69087 0.39945,-0.67251 1.00433,-0.67251 1.08424,0 1.34673,1.69088 1.07282,-1.07601 2.16846,-1.07601 2.00869,0 3.42389,2.40181 1.42662,2.38259 1.42662,5.76434 z m -0.69618,1.07601 q -0.525,-1.78694 -1.70054,-1.94066 0.0913,0.82622 0.1712,1.63323 0.18261,0.80701 0.82173,0.80701 0.44511,0 0.70761,-0.49958 z m -2.12282,-7.60893 q -0.94727,-0.84544 -2.03151,-0.84544 -0.66194,0 -1.30107,0.32665 -0.25108,0.46114 -0.50217,0.90308 -0.31956,0.61486 -0.31956,1.11444 v 1.76773 q 0,0.15372 0.14837,0.65329 0.69618,-1.49873 1.82607,-1.61401 0.68478,-2.22888 2.17987,-2.30574 z m -4.62224,1.63323 v -1.82538 q 0,-0.48036 -0.29674,-0.86465 -0.29674,-0.38429 -0.57065,-0.36507 l -0.11413,0.0192 q -0.8788,1.03758 -0.8788,2.40181 v 2.42102 q 0.68478,-1.61402 1.86032,-1.78695 z m 0,9.28059 v -3.84289 q -0.65054,0.11528 -1.24402,0.99915 -0.6163,0.94151 -0.6163,2.01752 v 2.67081 q 0.68478,-1.63323 1.86032,-1.84459 z" />
    <path
       inkscape:connector-curvature="0"
       id="path3780"
       style="font-style:normal;font-variant:normal;font-weight:normal;font-stretch:normal;font-size:medium;line-height:1.25;font-family:'Candy Cane (Unregistered)';-inkscape-font-specification:'Candy Cane (Unregistered)';letter-spacing:0px;word-spacing:0px;display:inline;fill:#9a0083;fill-opacity:1;stroke:none;stroke-width:0.75819945"
       d="m 181.56287,118.19511 q 0,0.97994 -0.37663,1.61402 -0.37662,0.61486 -0.94727,0.61486 -1.35814,0 -1.35814,-3.28567 0,-0.38429 0.0114,-1.07601 0.0228,-0.69172 0.0228,-0.96073 -0.70762,2.45946 -2.11141,4.03504 -1.40379,1.55638 -3.00161,1.55638 -2.27117,0 -3.90323,-2.9206 -1.60923,-2.86296 -1.60923,-6.68664 0,-3.80447 1.63206,-6.53293 1.63205,-2.72845 3.8804,-2.72845 1.60923,0 3.00161,1.4603 1.40379,1.4603 2.11141,3.88132 0,-0.269 -0.0228,-0.99915 -0.0114,-0.74936 -0.0114,-1.15287 0,-3.34332 1.35814,-3.34332 0.57065,0 0.94727,0.63408 0.37663,0.63408 0.37663,1.5948 z m -0.44511,-12.8737 v -1.71009 q 0,-0.44193 -0.28532,-0.80701 -0.27391,-0.38428 -0.53641,-0.34586 h -0.10271 q -0.83315,0.99916 -0.83315,2.28653 v 2.28652 q 0.65054,-1.53716 1.75759,-1.71009 z m 0,8.78102 v -3.65075 q -0.61629,0.11528 -1.16411,0.96072 -0.59348,0.88387 -0.59348,1.90224 v 2.53631 q 0.65054,-1.55638 1.75759,-1.74852 z m -4.30268,-9.89546 q -1.33532,-1.63323 -2.97878,-1.63323 -0.66195,0 -1.17554,1.15287 -0.51358,1.13366 -0.49076,2.26731 l 0.0114,0.269 q 0.75326,-0.73015 1.64347,-0.73015 0.42228,0 0.84455,0.19215 0.76467,-1.65245 2.14564,-1.51795 z m 2.08857,6.95564 q 0,-1.07601 -0.70761,-1.95987 -0.66194,-0.82622 -1.3239,-0.7878 l -0.13695,0.0192 q 0.39945,1.24895 0.39945,2.70925 0,0.57643 -0.0684,1.15287 0.86738,1.26815 0.86738,3.24724 0,0.34586 -0.0342,0.69172 1.00435,-2.26731 1.00435,-5.07262 z m -2.2027,-0.0384 q 0,-1.97909 -0.85597,-3.40096 -0.84456,-1.44108 -2.02009,-1.44108 -1.18696,0 -2.04293,1.44108 -0.84455,1.42187 -0.84455,3.40096 0,1.99831 0.84455,3.42018 0.85597,1.42187 2.04293,1.42187 1.17553,0 2.02009,-1.42187 0.85597,-1.42187 0.85597,-3.42018 z m -5.77496,2.76689 q -0.42228,-1.28737 -0.42228,-2.76689 0,-0.807 0.12554,-1.57558 -0.77608,-1.24894 -0.77608,-3.09353 0,-0.40351 0.0456,-0.7878 -1.16412,2.36338 -1.16412,5.41849 0,1.13365 0.7076,2.01752 0.66195,0.84543 1.33532,0.78779 z m 4.49671,2.38259 v -0.24978 q -0.74185,0.69172 -1.59781,0.69172 -0.41087,0 -0.79891,-0.15372 -0.74185,1.22973 -1.78042,1.22973 -0.38804,0 -0.75326,-0.19215 1.42662,2.09438 3.29834,2.09438 0.65054,0 1.17554,-1.19129 0.47935,-1.13366 0.45652,-2.22889 z" />
  </g>
</svg>
