<?xml version="1.0" encoding="UTF-8" standalone="no"?>
<!-- Created with Inkscape (http://www.inkscape.org/) -->

<svg
   xmlns:dc="http://purl.org/dc/elements/1.1/"
   xmlns:cc="http://creativecommons.org/ns#"
   xmlns:rdf="http://www.w3.org/1999/02/22-rdf-syntax-ns#"
   xmlns:svg="http://www.w3.org/2000/svg"
   xmlns="http://www.w3.org/2000/svg"
   xmlns:sodipodi="http://sodipodi.sourceforge.net/DTD/sodipodi-0.dtd"
   xmlns:inkscape="http://www.inkscape.org/namespaces/inkscape"
   width="84.516846mm"
   height="35.632809mm"
   viewBox="0 0 84.516846 35.632809"
   version="1.1"
   id="svg4048"
   inkscape:version="0.92.3 (2405546, 2018-03-11)"
   sodipodi:docname="tituloAlbumSweetCamera.svg">
  <defs
     id="defs4042" />
  <sodipodi:namedview
     id="base"
     pagecolor="#ffffff"
     bordercolor="#666666"
     borderopacity="1.0"
     inkscape:pageopacity="0.0"
     inkscape:pageshadow="2"
     inkscape:zoom="0.35"
     inkscape:cx="-347.42599"
     inkscape:cy="-29.805254"
     inkscape:document-units="mm"
     inkscape:current-layer="layer1"
     showgrid="false"
     fit-margin-top="0"
     fit-margin-left="0"
     fit-margin-right="0"
     fit-margin-bottom="0"
     inkscape:pagecheckerboard="true"
     inkscape:window-width="1366"
     inkscape:window-height="705"
     inkscape:window-x="-8"
     inkscape:window-y="-8"
     inkscape:window-maximized="1" />
  <metadata
     id="metadata4045">
    <rdf:RDF>
      <cc:Work
         rdf:about="">
        <dc:format>image/svg+xml</dc:format>
        <dc:type
           rdf:resource="http://purl.org/dc/dcmitype/StillImage" />
        <dc:title></dc:title>
      </cc:Work>
    </rdf:RDF>
  </metadata>
  <g
     inkscape:label="Camada 1"
     inkscape:groupmode="layer"
     id="layer1"
     transform="translate(-58.283245,-105.31455)">
    <path
       inkscape:connector-curvature="0"
       style="display:inline;opacity:0.74500002;fill:#9a0083;fill-opacity:1;stroke:none;stroke-width:0.06703292;stroke-linecap:square;stroke-linejoin:miter;stroke-miterlimit:4;stroke-dasharray:none;stroke-opacity:1;paint-order:markers stroke fill"
       d="m 62.500062,136.16061 h 76.083218 c 2.33611,0 4.21681,0.65942 4.21681,1.47851 v 1.82972 c 0,0.8191 -1.8807,1.47852 -4.21681,1.47852 H 62.500062 c -2.336117,0 -4.216817,-0.65942 -4.216817,-1.47852 v -1.82972 c 0,-0.81909 1.8807,-1.47851 4.216817,-1.47851 z"
       id="rect843-5" />
    <path
       inkscape:connector-curvature="0"
       id="path4011"
       style="font-style:normal;font-variant:normal;font-weight:normal;font-stretch:normal;font-size:medium;line-height:1.25;font-family:'Candy Cane (Unregistered)';-inkscape-font-specification:'Candy Cane (Unregistered)';letter-spacing:0px;word-spacing:0px;display:inline;fill:#9a0083;fill-opacity:1;stroke:none;stroke-width:0.75819945"
       d="m 79.757569,129.79379 q 0,1.01837 -0.399454,1.69088 -0.399453,0.6725 -1.004344,0.6725 -1.426618,0 -1.426618,-3.40096 0,-0.34586 0.01141,-0.97994 0.01141,-0.63407 0.01141,-0.88386 h -6.67658 q 0,0.269 0.01141,0.94151 0.01141,0.65329 0.01141,1.01836 0,3.42018 -1.42662,3.42018 -0.604887,0 -1.004341,-0.67251 -0.399455,-0.6725 -0.399455,-1.69087 V 116.5358 q 0,-4.28483 1.803248,-7.32071 1.803246,-3.03589 4.336926,-3.03589 2.545088,0 4.348339,3.03589 1.803251,3.03588 1.803251,7.32071 z m -0.467938,-12.16276 q 0,-2.53631 -0.228258,-3.68918 -0.410867,-2.01752 -1.632048,-2.01752 -0.456523,0 -0.970102,0.34586 0.798907,1.49873 0.93586,3.51625 1.209774,0.15371 1.894548,1.84459 z m -3.926057,-10.20289 q -0.855969,-0.46115 -1.757595,-0.46115 -0.616297,0 -1.209774,0.23058 -0.422281,0.65329 -0.844563,1.30658 -0.433688,0.82622 -0.433688,1.7293 0,0.55722 0.136954,1.24894 0.958688,-1.26815 2.19129,-1.36422 0.502172,-2.2481 1.917376,-2.69003 z m 1.586399,14.73751 v -5.62985 q 0,-2.38259 -1.038578,-3.99661 -1.027165,-1.63323 -2.442369,-1.63323 -1.346735,0 -2.271181,1.67166 -0.924454,1.67166 -0.924454,3.95818 v 5.62985 z m 2.339658,3.30489 q 0,-1.49873 -0.479344,-2.53632 -0.513578,-1.09522 -1.392376,-1.26815 v 4.32326 q 1.255423,0.30743 1.87172,2.17123 z m -4.861917,-2.5171 -2.716283,-0.0384 q -1.004344,-0.0192 -1.43804,0.82622 v 2.36338 h 2.955963 q 0.148367,-2.05595 1.19836,-3.15117 z m -4.622252,-5.22634 q -1.335316,-0.51879 -1.803247,-2.67081 -0.0913,0.92229 -0.0913,2.34416 0,2.69003 0.205433,3.7084 0.388041,1.88302 1.666289,2.13281 z m -0.02281,12.56627 q -1.175531,-0.21136 -1.848897,-1.8638 v 1.47951 q 0,1.57559 0.935863,1.57559 0.776081,0 0.913034,-1.1913 z" />
    <path
       inkscape:connector-curvature="0"
       id="path4013"
       style="font-style:normal;font-variant:normal;font-weight:normal;font-stretch:normal;font-size:medium;line-height:1.25;font-family:'Candy Cane (Unregistered)';-inkscape-font-specification:'Candy Cane (Unregistered)';letter-spacing:0px;word-spacing:0px;display:inline;fill:#9a0083;fill-opacity:1;stroke:none;stroke-width:0.75819945"
       d="m 85.167306,130.23573 q 0,1.01836 -0.399452,1.69087 -0.399454,0.65329 -1.004338,0.65329 -0.604891,0 -1.004344,-0.65329 -0.399453,-0.67251 -0.399453,-1.69087 v -22.11587 q 0,-1.01837 0.399453,-1.69087 0.399453,-0.67251 1.004344,-0.67251 0.604884,0 1.004338,0.67251 0.399452,0.6725 0.399452,1.69087 z m -0.46793,-22.1543 q -0.01141,-1.53716 -0.93586,-1.53716 -0.935867,0 -0.935867,1.57559 v 1.76773 q 0.696195,-1.61401 1.871727,-1.80616 z m 0,8.51202 v -3.65076 q -0.661953,0.11529 -1.244008,0.99916 -0.627719,0.94151 -0.627719,2.01752 v 2.42102 q 0.696195,-1.61401 1.871727,-1.78694 z m 0,9.28059 v -3.8429 q -0.661953,0.11529 -1.244008,0.99916 -0.627719,0.94151 -0.627719,2.01752 v 2.67081 q 0.684781,-1.63323 1.871727,-1.84459 z" />
    <path
       inkscape:connector-curvature="0"
       id="path4015"
       style="font-style:normal;font-variant:normal;font-weight:normal;font-stretch:normal;font-size:medium;line-height:1.25;font-family:'Candy Cane (Unregistered)';-inkscape-font-specification:'Candy Cane (Unregistered)';letter-spacing:0px;word-spacing:0px;display:inline;fill:#9a0083;fill-opacity:1;stroke:none;stroke-width:0.75819945"
       d="m 101.796,122.74208 q 0,4.01583 -1.814673,7.07093 -1.81465,3.0551 -4.199969,3.0551 -1.82607,0 -3.355407,-1.92145 -1.472274,-1.8638 -2.111398,-4.82283 0,0.30743 0.02281,1.13365 0.02281,0.82623 0.02281,1.30659 0,3.5931 -1.449446,3.5931 -0.604893,0 -1.004345,-0.6725 -0.399455,-0.67251 -0.399455,-1.69088 v -22.11586 q 0,-1.01837 0.399455,-1.69088 0.399451,-0.6725 1.004344,-0.6725 0.604883,0 1.004335,0.6725 0.399455,0.67251 0.399455,1.69088 v 11.62476 q 0.639124,-2.86296 2.145641,-4.64991 1.51792,-1.78694 3.33258,-1.78694 2.43096,0 4.211383,2.90138 1.79184,2.90139 1.79184,6.97486 z m -2.819002,-7.33993 q -1.415212,-1.74852 -3.149981,-1.74852 -0.69619,0 -1.266838,1.26816 -0.525003,1.17208 -0.490763,2.38259 v 0.26901 q 0.810321,-0.76858 1.734772,-0.76858 0.467929,0 0.901629,0.19214 0.810321,-1.74852 2.271181,-1.5948 z m 2.214112,7.37836 q 0,-1.15287 -0.75325,-2.09438 -0.696203,-0.86465 -1.392393,-0.82622 l -0.15978,0.0192 q 0.445101,1.3258 0.445101,2.86295 0,0.63408 -0.0799,1.22973 0.913042,1.34502 0.913042,3.43939 0,0.36508 -0.0342,0.73015 1.0614,-2.40181 1.0614,-5.36084 z m -11.344489,-15.1218 q -0.0114,-1.55637 -0.935858,-1.55637 -0.935868,0 -0.935868,1.57559 v 1.76773 q 0.696196,-1.61402 1.871726,-1.78695 z m 9.016235,15.06416 q 0,-2.09438 -0.901617,-3.61233 -0.901621,-1.51794 -2.157051,-1.51794 -1.244009,0 -2.14563,1.51794 -0.901631,1.51795 -0.901631,3.61233 0,2.11359 0.901631,3.63153 0.901621,1.51795 2.14563,1.51795 1.25543,0 2.157051,-1.51795 0.901617,-1.51794 0.901617,-3.63153 z m -9.016235,-6.57136 v -3.65075 q -0.661953,0.11529 -1.244007,0.99915 -0.627719,0.94152 -0.627719,2.03674 v 2.42102 q 0.696196,-1.61401 1.871726,-1.80616 z m 2.898897,9.51117 q -0.45652,-1.36423 -0.45652,-2.93981 0,-0.84544 0.148368,-1.67166 -0.821735,-1.3258 -0.821735,-3.26647 0,-0.42271 0.04563,-0.84543 -1.244018,2.51709 -1.244018,5.74513 0,1.19129 0.753261,2.1328 0.696187,0.90308 1.415192,0.84544 z m 4.7592,2.5171 v -0.24979 q -0.787489,0.73015 -1.70053,0.73015 -0.42228,0 -0.84455,-0.17293 -0.776091,1.30658 -1.88315,1.30658 -0.410861,0 -0.78749,-0.21136 1.506508,2.22889 3.49236,2.22889 0.684778,0 1.232598,-1.26816 0.525002,-1.1913 0.490762,-2.36338 z m -7.658097,-2.72846 v -3.86211 q -0.661953,0.1345 -1.244007,0.99915 -0.627719,0.94151 -0.627719,2.03674 v 2.67081 q 0.684781,-1.65244 1.871726,-1.84459 z" />
    <path
       inkscape:connector-curvature="0"
       id="path4017"
       style="font-style:normal;font-variant:normal;font-weight:normal;font-stretch:normal;font-size:medium;line-height:1.25;font-family:'Candy Cane (Unregistered)';-inkscape-font-specification:'Candy Cane (Unregistered)';letter-spacing:0px;word-spacing:0px;display:inline;fill:#9a0083;fill-opacity:1;stroke:none;stroke-width:0.75819945"
       d="m 113.3345,130.23573 q 0,1.01836 -0.39946,1.69087 -0.39945,0.65329 -1.00433,0.65329 -1.09564,0 -1.35814,-1.67166 -1.07282,1.07601 -2.16847,1.07601 -1.99726,0 -3.42389,-2.38259 -1.42662,-2.40181 -1.42662,-5.78356 v -8.74259 q 0,-0.94151 0.42228,-1.65244 0.42228,-0.71094 0.98151,-0.71094 0.60489,0 1.00435,0.67251 0.39945,0.67251 0.39945,1.69087 v 8.74259 q 0,1.40266 0.60489,2.42103 0.6163,1.01836 1.46085,1.01836 1.09565,0 1.70054,-1.57558 -0.0342,-0.28822 0.13696,-0.42272 0.1826,-0.6533 0.19401,-1.44109 0.1712,-1.38344 0.1712,-3.28568 0,-0.92229 -0.057,-2.74767 -0.0456,-1.84459 -0.0456,-2.70924 0,-1.01836 0.39945,-1.69087 0.39946,-0.67251 1.00435,-0.67251 0.60488,0 1.00434,0.67251 0.39945,0.67251 0.39945,1.69087 z m -0.46793,-9.97232 v -3.38175 q -0.0913,-0.0961 -0.20543,-0.0961 -0.39946,0 -1.03858,0.99916 -0.62771,0.99915 -0.62771,1.63323 v 3.86211 q 0.31956,-1.01837 1.16412,-1.86381 0.7076,-0.71093 0.7076,-1.15287 z m -6.99615,-4.40011 q -0.0114,-2.09438 -0.91304,-2.09438 -0.37662,0 -0.78749,0.51879 0.7076,1.42187 1.70053,1.57559 z m 6.99615,13.48856 v -2.42102 q -0.23967,-0.0577 -0.41087,-0.0577 -0.83314,0 -1.46085,1.84459 v 1.82537 q 0,0.48036 0.30815,0.86465 0.30814,0.38429 0.58205,0.34586 h 0.0913 q 0.89021,-1.03758 0.89021,-2.40181 z m -6.91626,-4.66912 -0.057,-3.97739 q -1.24401,-0.23058 -1.79184,-1.84459 v 4.01582 q 0.4337,1.84459 1.55217,1.84459 0.11412,0 0.29673,-0.0384 z m 4.5766,4.16954 v -1.76773 q 0,-0.15371 -0.14837,-0.65329 -0.69619,1.49873 -1.82607,1.61402 -0.68478,2.22888 -2.17988,2.30573 0.94728,0.84544 2.03151,0.84544 0.67336,0 1.30108,-0.32665 0.25108,-0.46114 0.50217,-0.90308 0.31956,-0.61486 0.31956,-1.11444 z" />
    <path
       inkscape:connector-curvature="0"
       id="path4019"
       style="font-style:normal;font-variant:normal;font-weight:normal;font-stretch:normal;font-size:medium;line-height:1.25;font-family:'Candy Cane (Unregistered)';-inkscape-font-specification:'Candy Cane (Unregistered)';letter-spacing:0px;word-spacing:0px;display:inline;fill:#9a0083;fill-opacity:1;stroke:none;stroke-width:0.75819945"
       d="m 132.33709,130.23573 q 0,0.94151 -0.42229,1.65244 -0.41086,0.69172 -0.9701,0.69172 -0.60488,0 -1.00434,-0.65329 -0.39945,-0.67251 -0.39945,-1.69087 v -8.74259 q 0,-1.40266 -0.6163,-2.42103 -0.60489,-1.01836 -1.46086,-1.01836 -0.55924,0 -1.10706,0.538 -0.5364,0.51879 -0.76467,1.38345 0.0913,0.74936 0.0913,1.51794 v 8.74259 q 0,0.94151 -0.42227,1.65244 -0.42228,0.69172 -0.98152,0.69172 -0.60489,0 -1.00434,-0.65329 -0.39945,-0.67251 -0.39945,-1.69087 v -8.74259 q 0,-1.40266 -0.6163,-2.42103 -0.60489,-1.01836 -1.44945,-1.01836 -1.09565,0 -1.70053,1.57558 0.0342,0.28822 -0.13695,0.40351 -0.18261,0.67251 -0.18261,1.4603 -0.18261,1.36423 -0.18261,3.28567 0,0.9223 0.0456,2.76689 0.057,1.82538 0.057,2.69003 0,1.01836 -0.39946,1.69087 -0.38804,0.65329 -0.99293,0.65329 -0.60488,0 -1.00433,-0.65329 -0.39946,-0.67251 -0.39946,-1.69087 V 115.0755 q 0,-1.01836 0.39946,-1.69087 0.39945,-0.67251 1.00433,-0.67251 1.08424,0 1.34673,1.69087 1.07282,-1.076 2.16847,-1.076 1.90596,0 3.29835,2.17123 1.5864,-2.17123 3.3554,-2.17123 2.00868,0 3.42389,2.40181 1.42662,2.38259 1.42662,5.76434 z m -2.80759,-15.27551 q -0.9587,-0.84544 -2.04292,-0.84544 -1.10706,0 -1.63206,0.71093 -0.52499,0.71094 -0.75325,2.45946 0.057,0.36507 0.42227,1.5948 0.6962,-1.49873 1.81467,-1.61402 0.69619,-2.22888 2.19129,-2.30573 z m 2.27117,11.49025 v -4.01582 q -0.43369,-1.86381 -1.55216,-1.86381 -0.11413,0 -0.29674,0.0576 l 0.057,3.9774 q 1.2326,0.23058 1.79183,1.84459 z m -0.0685,4.57305 q -0.70761,-1.44109 -1.70054,-1.57559 0.0114,2.07517 0.91304,2.07517 0.37663,0 0.7875,-0.49958 z m -8.86784,-16.0633 q -0.94727,-0.84544 -2.0315,-0.84544 -0.66195,0 -1.30108,0.32665 -0.25108,0.46114 -0.50217,0.90308 -0.31956,0.61486 -0.31956,1.11444 v 1.76773 q 0,0.15371 0.14837,0.65329 0.69618,-1.49873 1.82607,-1.61402 0.68478,-2.22888 2.17987,-2.30573 z m 2.2826,11.49025 v -4.01582 q -0.4451,-1.86381 -1.55217,-1.86381 -0.12554,0 -0.30815,0.0576 l 0.057,3.9774 q 1.2326,0.23058 1.80325,1.84459 z m -6.90484,-9.85702 v -1.82538 q 0,-0.48036 -0.29674,-0.86465 -0.29674,-0.38429 -0.57065,-0.36508 l -0.11413,0.0192 q -0.8788,1.03758 -0.8788,2.40181 v 2.42103 q 0.68478,-1.61402 1.86032,-1.78695 z m 6.83636,14.43007 q -0.7076,-1.44109 -1.71194,-1.57559 0.0114,2.07517 0.92445,2.07517 0.36521,0 0.78749,-0.49958 z m -6.83636,-5.14948 v -3.8429 q -0.65054,0.11529 -1.24402,0.99916 -0.6163,0.94151 -0.6163,2.01752 v 2.67081 q 0.68478,-1.63323 1.86032,-1.84459 z" />
  </g>
</svg>
